<svg xmlns="http://www.w3.org/2000/svg" fill="none" viewBox="0 0 128 128">
  <path fill="#4CAF50" d="M40 128C62.1 128 80 110.1 80 88H0C0 110.1 17.9 128 40 128Z"></path>
  <path fill="#2E7D32" d="M40 0C17.9 0 0 17.9 0 40C0 62.1 17.9 80 40 80C62.1 80 80 62.1 80 40C80 17.9 62.1 0 40 0ZM40 64C29.8 64 21.3 56.6 19.5 46.7C23.2 49.4 29 49.4 33.4 45C37.7 40.7 38.4 34.8 35.6 31.1C45.5 32.9 53 41.3 53 51.6C53 58.6 47.3 64.3 40.3 64.3L40 64Z"></path>
  <path fill="#81C784" d="M105.6 56C116.1 56 124.6 47.5 124.6 37C124.6 26.5 116.1 18 105.6 18C95.1 18 86.6 26.5 86.6 37C86.6 47.5 95.1 56 105.6 56Z"></path>
  <path fill="#4CAF50" d="M69.2 101.6C69.2 113.8 79.1 123.7 91.3 123.7C103.5 123.7 113.4 113.8 113.4 101.6C113.4 89.4 103.5 79.5 91.3 79.5C79.1 79.5 69.2 89.4 69.2 101.6Z"></path>
</svg>